# xmcd
#
# Track frame offsets:
#	150
#	17688
#	36014
#	47525
#	61579
#	76430
#	89363
#	104546
#	119830
#
# Disc length: 1825 seconds
#
# Revision: 0
# Processed by: cddbd v1.5.2PL0 Copyright (c) Steve Scherf et al.
# Submitted via: audiograbber 1.81.01
#
DISCID=6c071f09
DTITLE=Jerry Forney - Ice and Steel
DYEAR=2002
DGENRE=Blues
TTITLE0=El Diablo
TTITLE1=Ice and Steel
TTITLE2=Red Headed Woman
TTITLE3=Hard Times Ahead
TTITLE4=Mean Low Rider
TTITLE5=Old Number
TTITLE6=Juannita
TTITLE7=Roll On
TTITLE8=South Bound
EXTD=
EXTT0=
EXTT1=
EXTT2=
EXTT3=
EXTT4=
EXTT5=
EXTT6=
EXTT7=
EXTT8=
PLAYORDER=
